#N canvas 271 51 1920 1157 12;
#X declare -lib Gem;
#X obj 26 -55 declare -lib Gem;
#X obj 27 32 gemwin;
#X obj 485 208 + 0.5;
#X obj 489 76 bng 19 250 50 0 empty empty empty 0 -10 0 12 #fcfcfc #000000 #000000;
#X obj 555 210 + 0.5;
#X obj 357 463 translateXYZ;
#X obj 395 219 gemhead;
#X obj 359 508 circle 0.1;
#X obj 786 190 + 0.5;
#X obj 790 58 bng 19 250 50 0 empty empty empty 0 -10 0 12 #fcfcfc #000000 #000000;
#X obj 856 192 + 0.5;
#X obj 727 434 translateXYZ;
#X obj 696 201 gemhead;
#X obj 779 487 circle 0.1;
#X obj 529 580 curve 3;
#X obj 457 462 pack 0 0 0;
#X obj 694 514 pack 0 0 0;
#X obj 622 461 gemhead;
#X obj 437 328 line~;
#X obj 550 328 line~;
#X obj 425 362 snapshot~;
#X obj 502 359 snapshot~;
#X msg 86 29 frame 60;
#X obj 732 351 snapshot~;
#X obj 809 348 snapshot~;
#X obj 738 310 line~;
#X obj 851 310 line~;
#X obj 580 401 +~;
#X obj 579 428 /~ 2;
#X obj 630 402 +~;
#X obj 624 433 /~ 2;
#X obj 538 495 snapshot~;
#X obj 628 504 snapshot~;
#X obj 555 529 pack 0 0 0;
#X obj 665 482 -~ 2;
#X obj 541 463 bob~;
#X obj 527 394 sig~ 1;
#X obj 1050 225 + 0.5;
#X obj 1054 93 bng 19 250 50 0 empty empty empty 0 -10 0 12 #fcfcfc #000000 #000000;
#X obj 1120 227 + 0.5;
#X obj 922 480 translateXYZ;
#X obj 960 236 gemhead;
#X obj 924 525 circle 0.1;
#X obj 1351 207 + 0.5;
#X obj 1355 75 bng 19 250 50 0 empty empty empty 0 -10 0 12 #fcfcfc #000000 #000000;
#X obj 1421 209 + 0.5;
#X obj 1292 451 translateXYZ;
#X obj 1261 218 gemhead;
#X obj 1344 504 circle 0.1;
#X obj 1094 597 curve 3;
#X obj 1022 479 pack 0 0 0;
#X obj 1259 531 pack 0 0 0;
#X obj 1187 478 gemhead;
#X obj 1002 345 line~;
#X obj 1115 345 line~;
#X obj 990 379 snapshot~;
#X obj 1073 379 snapshot~;
#X obj 1297 368 snapshot~;
#X obj 1374 365 snapshot~;
#X obj 1303 327 line~;
#X obj 1416 327 line~;
#X obj 1145 418 +~;
#X obj 1144 445 /~ 2;
#X obj 1195 419 +~;
#X obj 1189 450 /~ 2;
#X obj 1103 512 snapshot~;
#X obj 1193 521 snapshot~;
#X obj 1120 546 pack 0 0 0;
#X obj 1230 499 -~ 2;
#X obj 1106 480 bob~;
#X obj 1092 411 sig~ 1;
#X obj 918 289 bang;
#X obj 353 272 bang;
#X msg 484 246 \$1 500;
#X msg 558 248 \$1 500;
#X msg 785 228 \$1 500;
#X msg 859 230 \$1 500;
#X msg 1049 263 \$1 500;
#X msg 1123 266 \$1 500;
#X msg 1350 245 \$1 500;
#X msg 1424 247 \$1 500;
#X obj 462 831 + 0.5;
#X obj 466 699 bng 19 250 50 0 empty empty empty 0 -10 0 12 #fcfcfc #000000 #000000;
#X obj 532 833 + 0.5;
#X obj 334 1086 translateXYZ;
#X obj 372 842 gemhead;
#X obj 336 1131 circle 0.1;
#X obj 698 848 + 0.5;
#X obj 702 716 bng 19 250 50 0 empty empty empty 0 -10 0 12 #fcfcfc #000000 #000000;
#X obj 768 850 + 0.5;
#X obj 704 1057 translateXYZ;
#X obj 660 1020 gemhead;
#X obj 756 1110 circle 0.1;
#X obj 506 1203 curve 3;
#X obj 434 1085 pack 0 0 0;
#X obj 671 1137 pack 0 0 0;
#X obj 599 1084 gemhead;
#X obj 414 951 line~;
#X obj 527 951 line~;
#X obj 402 985 snapshot~;
#X obj 479 982 snapshot~;
#X obj 709 974 snapshot~;
#X obj 786 971 snapshot~;
#X obj 715 933 line~;
#X obj 765 932 line~;
#X obj 557 1024 +~;
#X obj 556 1051 /~ 2;
#X obj 607 1025 +~;
#X obj 601 1056 /~ 2;
#X obj 515 1118 snapshot~;
#X obj 605 1127 snapshot~;
#X obj 532 1152 pack 0 0 0;
#X obj 642 1105 -~ 2;
#X obj 518 1086 bob~;
#X obj 504 1017 sig~ 1;
#X obj 1027 848 + 0.5;
#X obj 1031 716 bng 19 250 50 0 empty empty empty 0 -10 0 12 #fcfcfc #000000 #000000;
#X obj 1097 850 + 0.5;
#X obj 899 1103 translateXYZ;
#X obj 890 879 gemhead;
#X obj 901 1148 circle 0.1;
#X obj 1328 830 + 0.5;
#X obj 1332 698 bng 19 250 50 0 empty empty empty 0 -10 0 12 #fcfcfc #000000 #000000;
#X obj 1398 832 + 0.5;
#X obj 1269 1074 translateXYZ;
#X obj 1238 841 gemhead;
#X obj 1321 1127 circle 0.1;
#X obj 986 1211 curve 3;
#X obj 999 1102 pack 0 0 0;
#X obj 1236 1154 pack 0 0 0;
#X obj 1164 1101 gemhead;
#X obj 979 968 line~;
#X obj 1092 968 line~;
#X obj 967 1002 snapshot~;
#X obj 1044 999 snapshot~;
#X obj 1274 991 snapshot~;
#X obj 1351 988 snapshot~;
#X obj 1280 950 line~;
#X obj 1393 950 line~;
#X obj 1122 1041 +~;
#X obj 1121 1068 /~ 2;
#X obj 1172 1042 +~;
#X obj 1166 1073 /~ 2;
#X obj 1080 1135 snapshot~;
#X obj 1170 1144 snapshot~;
#X obj 1097 1169 pack 0 0 0;
#X obj 1207 1122 -~ 2;
#X obj 1083 1103 bob~;
#X obj 1069 1034 sig~ 1;
#X obj 895 912 bang;
#X obj 386 874 bang;
#X msg 461 869 \$1 500;
#X msg 535 871 \$1 500;
#X msg 697 886 \$1 500;
#X msg 771 888 \$1 500;
#X msg 1026 886 \$1 500;
#X msg 1100 889 \$1 500;
#X msg 1327 868 \$1 500;
#X msg 1401 870 \$1 500;
#X obj 490 -32 +;
#X msg 491 -60 1;
#X obj 517 -126 tgl 19 0 empty empty empty 0 -10 0 12 #fcfcfc #000000 #000000 0 1;
#X obj 488 166 - 2;
#X obj 491 131 random 4;
#X obj 561 133 random 4;
#X obj 558 168 - 2;
#X obj 792 113 random 4;
#X obj 789 148 - 2;
#X obj 862 115 random 4;
#X obj 859 150 - 2;
#X obj 1056 148 random 4;
#X obj 1053 183 - 2;
#X obj 1126 150 random 4;
#X obj 1123 185 - 2;
#X obj 1357 130 random 4;
#X obj 1354 165 - 2;
#X obj 1427 133 random 4;
#X obj 1424 167 - 2;
#X obj 468 754 random 4;
#X obj 465 789 - 2;
#X obj 538 756 random 4;
#X obj 535 791 - 2;
#X obj 704 771 random 4;
#X obj 701 806 - 2;
#X obj 774 773 random 4;
#X obj 771 808 - 2;
#X obj 1033 771 random 4;
#X obj 1030 806 - 2;
#X obj 1103 773 random 4;
#X obj 1100 808 - 2;
#X obj 1332 753 random 4;
#X obj 1331 788 - 2;
#X obj 1404 755 random 4;
#X obj 1401 790 - 2;
#X obj 1634 218 + 0.5;
#X obj 1638 86 bng 19 250 50 0 empty empty empty 0 -10 0 12 #fcfcfc #000000 #000000;
#X obj 1704 220 + 0.5;
#X obj 1506 473 translateXYZ;
#X obj 1544 229 gemhead;
#X obj 1508 518 circle 0.1;
#X obj 1935 200 + 0.5;
#X obj 1939 68 bng 19 250 50 0 empty empty empty 0 -10 0 12 #fcfcfc #000000 #000000;
#X obj 2005 202 + 0.5;
#X obj 1876 444 translateXYZ;
#X obj 1845 211 gemhead;
#X obj 1928 497 circle 0.1;
#X obj 1678 590 curve 3;
#X obj 1606 472 pack 0 0 0;
#X obj 1843 524 pack 0 0 0;
#X obj 1771 471 gemhead;
#X obj 1586 338 line~;
#X obj 1699 338 line~;
#X obj 1574 372 snapshot~;
#X obj 1651 369 snapshot~;
#X obj 1881 361 snapshot~;
#X obj 1958 358 snapshot~;
#X obj 1887 320 line~;
#X obj 2000 320 line~;
#X obj 1729 411 +~;
#X obj 1728 438 /~ 2;
#X obj 1779 412 +~;
#X obj 1773 443 /~ 2;
#X obj 1687 505 snapshot~;
#X obj 1777 514 snapshot~;
#X obj 1704 539 pack 0 0 0;
#X obj 1814 492 -~ 2;
#X obj 1690 473 bob~;
#X obj 1676 404 sig~ 1;
#X obj 2199 235 + 0.5;
#X obj 2203 103 bng 19 250 50 0 empty empty empty 0 -10 0 12 #fcfcfc #000000 #000000;
#X obj 2269 237 + 0.5;
#X obj 2071 490 translateXYZ;
#X obj 2109 246 gemhead;
#X obj 2073 535 circle 0.1;
#X obj 2500 217 + 0.5;
#X obj 2504 85 bng 19 250 50 0 empty empty empty 0 -10 0 12 #fcfcfc #000000 #000000;
#X obj 2570 219 + 0.5;
#X obj 2441 461 translateXYZ;
#X obj 2410 228 gemhead;
#X obj 2493 514 circle 0.1;
#X obj 2243 607 curve 3;
#X obj 2171 489 pack 0 0 0;
#X obj 2408 541 pack 0 0 0;
#X obj 2336 488 gemhead;
#X obj 2151 355 line~;
#X obj 2264 355 line~;
#X obj 2139 389 snapshot~;
#X obj 2216 386 snapshot~;
#X obj 2446 378 snapshot~;
#X obj 2523 375 snapshot~;
#X obj 2452 337 line~;
#X obj 2565 337 line~;
#X obj 2294 428 +~;
#X obj 2293 455 /~ 2;
#X obj 2344 429 +~;
#X obj 2338 460 /~ 2;
#X obj 2252 522 snapshot~;
#X obj 2342 531 snapshot~;
#X obj 2269 556 pack 0 0 0;
#X obj 2379 509 -~ 2;
#X obj 2255 490 bob~;
#X obj 2241 421 sig~ 1;
#X obj 2067 299 bang;
#X obj 1502 282 bang;
#X msg 1633 256 \$1 500;
#X msg 1707 258 \$1 500;
#X msg 1934 238 \$1 500;
#X msg 2008 240 \$1 500;
#X msg 2198 273 \$1 500;
#X msg 2272 276 \$1 500;
#X msg 2499 255 \$1 500;
#X msg 2573 257 \$1 500;
#X obj 507 5 sel 0 1 2 3 4 5 6 7 8 9 10 11;
#X obj 524 -33 % 12;
#X obj 2506 140 random 4;
#X obj 2576 142 random 4;
#X obj 2275 160 random 4;
#X obj 2205 158 random 4;
#X obj 2011 125 random 4;
#X obj 1941 123 random 4;
#X obj 1710 143 random 4;
#X obj 1640 141 random 4;
#X obj 1637 176 - 2, f 6;
#X obj 1707 178 - 2;
#X obj 1938 158 - 2;
#X obj 2008 160 - 2;
#X obj 2202 193 - 2;
#X obj 2272 195 - 2;
#X obj 2503 175 - 2;
#X obj 2573 177 - 2;
#X obj 491 -93 metro 200;
#X obj 1641 423 sig~ 3.9;
#X obj 2206 440 sig~ 3.9;
#X obj 1057 430 sig~ 3.9;
#X obj 1034 1053 sig~ 3.9;
#X obj 469 1036 sig~ 3.9;
#X obj 492 413 sig~ 3.9;
#X msg 1472 -33 width 3;
#X obj 18 402 gemhead;
#X obj 50 515 textextruded;
#X msg 128 466 text SKYKYS;
#X obj 30 457 translateXYZ;
#X msg 209 435 3;
#X msg 173 402 depth 0;
#X obj 101 406 + 0.25;
#X obj 12 702 gemhead;
#X obj 25 798 textextruded;
#X obj 24 757 translateXYZ;
#X msg 211 770 3;
#X msg 253 772 depth 0;
#X obj 95 706 + 0.25;
#X msg 122 766 text PHUPA;
#X obj 6 568 gemhead;
#X obj 19 664 textextruded;
#X obj 18 623 translateXYZ;
#X msg 197 601 3;
#X msg 161 568 depth 0;
#X obj 89 572 + 0.25;
#X obj 23 846 gemhead;
#X obj 36 942 textextruded;
#X obj 35 901 translateXYZ;
#X msg 218 915 3;
#X msg 255 921 depth 0;
#X obj 106 850 + 0.25;
#X msg 133 910 text PSRWP;
#X msg 165 32 destroy;
#N canvas 635 387 769 422 textrunning 0;
#X obj 87 357 textextruded;
#X obj 90 313 translateXYZ;
#X obj 89 199 gemhead;
#X obj 113 279 snapshot~;
#X obj 112 253 bang;
#X obj 147 52 *~ 2;
#X obj 159 108 -~ 1;
#X obj 151 22 phasor~ -0.1;
#X msg 383 163 text TRACE&&PATCH >> SYNAP[home/lab] LIVE_MODULAR INIT(CLOCK) 20:00~>00:00 26:2:2024;
#X obj 190 358 textextruded;
#X obj 189 318 translateXYZ;
#X obj 188 220 gemhead;
#X obj 213 288 snapshot~;
#X obj 211 262 bang;
#X obj 217 119 *~ 2;
#X obj 218 143 -~ 1;
#X msg 24 314 depth 0;
#X msg 459 249 -3.5;
#X obj 191 49 +~ 0.5;
#X obj 192 77 wrap~;
#X obj 163 147 *~ 9.5;
#X obj 219 171 *~ 9.5;
#X obj 292 356 textextruded;
#X obj 291 316 translateXYZ;
#X obj 289 223 gemhead;
#X msg 487 314 3;
#X obj 317 281 snapshot~;
#X obj 314 254 bang;
#X obj 274 55 *~ 2;
#X obj 275 81 -~ 1;
#X obj 394 355 textextruded;
#X obj 386 316 translateXYZ;
#X obj 407 217 gemhead;
#X obj 410 285 snapshot~;
#X obj 408 245 bang;
#X obj 326 132 *~ 2;
#X obj 325 155 -~ 1;
#X obj 313 54 +~ 0.5;
#X obj 326 107 wrap~;
#X obj 275 106 *~ 9.5;
#X obj 326 177 *~ 9.5;
#X obj 274 15 phasor~ 0.1;
#X msg 504 249 3.5;
#X obj 383 139 loadbang;
#X connect 1 0 0 0;
#X connect 2 0 4 0;
#X connect 2 0 1 0;
#X connect 3 0 1 1;
#X connect 4 0 3 0;
#X connect 5 0 6 0;
#X connect 6 0 20 0;
#X connect 7 0 5 0;
#X connect 7 0 18 0;
#X connect 8 0 0 0;
#X connect 8 0 9 0;
#X connect 8 0 22 0;
#X connect 8 0 30 0;
#X connect 10 0 9 0;
#X connect 11 0 13 0;
#X connect 11 0 10 0;
#X connect 12 0 10 1;
#X connect 13 0 12 0;
#X connect 14 0 15 0;
#X connect 15 0 21 0;
#X connect 16 0 9 0;
#X connect 16 0 0 0;
#X connect 16 0 22 0;
#X connect 16 0 30 0;
#X connect 17 0 10 2;
#X connect 17 0 1 2;
#X connect 18 0 19 0;
#X connect 19 0 14 0;
#X connect 20 0 3 0;
#X connect 21 0 12 0;
#X connect 23 0 22 0;
#X connect 24 0 27 0;
#X connect 24 0 23 0;
#X connect 25 0 22 1;
#X connect 25 0 30 1;
#X connect 25 0 0 1;
#X connect 25 0 9 1;
#X connect 26 0 23 1;
#X connect 27 0 26 0;
#X connect 28 0 29 0;
#X connect 29 0 39 0;
#X connect 31 0 30 0;
#X connect 32 0 34 0;
#X connect 32 0 31 0;
#X connect 33 0 31 1;
#X connect 34 0 33 0;
#X connect 35 0 36 0;
#X connect 36 0 40 0;
#X connect 37 0 38 0;
#X connect 38 0 35 0;
#X connect 39 0 26 0;
#X connect 40 0 33 0;
#X connect 41 0 28 0;
#X connect 41 0 37 0;
#X connect 42 0 23 2;
#X connect 42 0 31 2;
#X connect 43 0 8 0;
#X connect 43 0 17 0;
#X connect 43 0 42 0;
#X connect 43 0 25 0;
#X connect 43 0 16 0;
#X restore 27 -29 pd textrunning;
#X msg 116 632 text CRSRCRSRRR;
#X obj 503 -150 loadbang;
#X obj 150 323 loadbang;
#X msg 27 0 dimen 500 500 \, create \, 1;
#X connect 2 0 73 0;
#X connect 3 0 163 0;
#X connect 3 0 164 0;
#X connect 4 0 74 0;
#X connect 5 0 7 0;
#X connect 6 0 5 0;
#X connect 6 0 72 0;
#X connect 8 0 75 0;
#X connect 9 0 166 0;
#X connect 9 0 168 0;
#X connect 10 0 76 0;
#X connect 11 0 13 0;
#X connect 12 0 11 0;
#X connect 15 0 14 1;
#X connect 16 0 14 3;
#X connect 17 0 14 0;
#X connect 18 0 27 0;
#X connect 18 0 20 0;
#X connect 19 0 21 0;
#X connect 19 0 29 0;
#X connect 20 0 5 1;
#X connect 20 0 15 0;
#X connect 20 0 301 1;
#X connect 21 0 5 2;
#X connect 21 0 15 1;
#X connect 21 0 304 0;
#X connect 22 0 1 0;
#X connect 23 0 11 1;
#X connect 23 0 16 0;
#X connect 24 0 11 2;
#X connect 24 0 16 1;
#X connect 25 0 23 0;
#X connect 25 0 27 1;
#X connect 26 0 24 0;
#X connect 26 0 29 1;
#X connect 27 0 28 0;
#X connect 28 0 35 0;
#X connect 29 0 30 0;
#X connect 30 0 34 0;
#X connect 31 0 33 0;
#X connect 32 0 33 1;
#X connect 33 0 14 2;
#X connect 34 0 32 0;
#X connect 35 0 31 0;
#X connect 36 0 35 2;
#X connect 37 0 77 0;
#X connect 38 0 170 0;
#X connect 38 0 172 0;
#X connect 39 0 78 0;
#X connect 40 0 42 0;
#X connect 41 0 40 0;
#X connect 41 0 71 0;
#X connect 43 0 79 0;
#X connect 44 0 174 0;
#X connect 44 0 176 0;
#X connect 45 0 80 0;
#X connect 46 0 48 0;
#X connect 47 0 46 0;
#X connect 50 0 49 1;
#X connect 51 0 49 3;
#X connect 52 0 49 0;
#X connect 53 0 61 0;
#X connect 53 0 55 0;
#X connect 54 0 56 0;
#X connect 54 0 63 0;
#X connect 55 0 40 1;
#X connect 55 0 50 0;
#X connect 55 0 307 1;
#X connect 56 0 40 2;
#X connect 56 0 50 1;
#X connect 56 0 310 0;
#X connect 57 0 46 1;
#X connect 57 0 51 0;
#X connect 58 0 46 2;
#X connect 58 0 51 1;
#X connect 59 0 57 0;
#X connect 59 0 61 1;
#X connect 60 0 58 0;
#X connect 60 0 63 1;
#X connect 61 0 62 0;
#X connect 62 0 69 0;
#X connect 63 0 64 0;
#X connect 64 0 68 0;
#X connect 65 0 67 0;
#X connect 66 0 67 1;
#X connect 67 0 49 2;
#X connect 68 0 66 0;
#X connect 69 0 65 0;
#X connect 70 0 69 2;
#X connect 71 0 55 0;
#X connect 71 0 56 0;
#X connect 71 0 57 0;
#X connect 71 0 58 0;
#X connect 71 0 65 0;
#X connect 71 0 66 0;
#X connect 72 0 20 0;
#X connect 72 0 21 0;
#X connect 72 0 23 0;
#X connect 72 0 24 0;
#X connect 72 0 31 0;
#X connect 72 0 32 0;
#X connect 73 0 18 0;
#X connect 74 0 19 0;
#X connect 75 0 25 0;
#X connect 76 0 26 0;
#X connect 77 0 53 0;
#X connect 78 0 54 0;
#X connect 79 0 59 0;
#X connect 80 0 60 0;
#X connect 81 0 151 0;
#X connect 82 0 178 0;
#X connect 82 0 180 0;
#X connect 83 0 152 0;
#X connect 84 0 86 0;
#X connect 85 0 84 0;
#X connect 85 0 150 0;
#X connect 87 0 153 0;
#X connect 88 0 182 0;
#X connect 88 0 184 0;
#X connect 89 0 154 0;
#X connect 90 0 92 0;
#X connect 91 0 90 0;
#X connect 94 0 93 1;
#X connect 95 0 93 3;
#X connect 96 0 93 0;
#X connect 97 0 105 0;
#X connect 97 0 99 0;
#X connect 98 0 100 0;
#X connect 98 0 107 0;
#X connect 99 0 84 1;
#X connect 99 0 94 0;
#X connect 99 0 314 1;
#X connect 100 0 84 2;
#X connect 100 0 94 1;
#X connect 100 0 317 0;
#X connect 101 0 90 1;
#X connect 101 0 95 0;
#X connect 102 0 90 2;
#X connect 102 0 95 1;
#X connect 103 0 101 0;
#X connect 103 0 105 1;
#X connect 104 0 102 0;
#X connect 104 0 107 1;
#X connect 105 0 106 0;
#X connect 106 0 113 0;
#X connect 107 0 108 0;
#X connect 108 0 112 0;
#X connect 109 0 111 0;
#X connect 110 0 111 1;
#X connect 111 0 93 2;
#X connect 112 0 110 0;
#X connect 113 0 109 0;
#X connect 114 0 113 2;
#X connect 115 0 155 0;
#X connect 116 0 186 0;
#X connect 116 0 188 0;
#X connect 117 0 156 0;
#X connect 118 0 120 0;
#X connect 119 0 118 0;
#X connect 119 0 149 0;
#X connect 121 0 157 0;
#X connect 122 0 190 0;
#X connect 122 0 192 0;
#X connect 123 0 158 0;
#X connect 124 0 126 0;
#X connect 125 0 124 0;
#X connect 128 0 127 1;
#X connect 129 0 127 3;
#X connect 130 0 127 0;
#X connect 131 0 139 0;
#X connect 131 0 133 0;
#X connect 132 0 134 0;
#X connect 132 0 141 0;
#X connect 133 0 118 1;
#X connect 133 0 128 0;
#X connect 133 0 320 1;
#X connect 134 0 118 2;
#X connect 134 0 128 1;
#X connect 134 0 323 0;
#X connect 135 0 124 1;
#X connect 135 0 129 0;
#X connect 136 0 124 2;
#X connect 136 0 129 1;
#X connect 137 0 135 0;
#X connect 137 0 139 1;
#X connect 138 0 136 0;
#X connect 138 0 141 1;
#X connect 139 0 140 0;
#X connect 140 0 147 0;
#X connect 141 0 142 0;
#X connect 142 0 146 0;
#X connect 143 0 145 0;
#X connect 144 0 145 1;
#X connect 145 0 127 2;
#X connect 146 0 144 0;
#X connect 147 0 143 0;
#X connect 148 0 147 2;
#X connect 149 0 133 0;
#X connect 149 0 134 0;
#X connect 149 0 135 0;
#X connect 149 0 136 0;
#X connect 149 0 143 0;
#X connect 149 0 144 0;
#X connect 150 0 99 0;
#X connect 150 0 100 0;
#X connect 150 0 101 0;
#X connect 150 0 102 0;
#X connect 150 0 109 0;
#X connect 150 0 110 0;
#X connect 151 0 97 0;
#X connect 152 0 98 0;
#X connect 153 0 103 0;
#X connect 154 0 104 0;
#X connect 155 0 131 0;
#X connect 156 0 132 0;
#X connect 157 0 137 0;
#X connect 158 0 138 0;
#X connect 159 0 273 0;
#X connect 160 0 159 0;
#X connect 161 0 290 0;
#X connect 162 0 2 0;
#X connect 163 0 162 0;
#X connect 164 0 165 0;
#X connect 165 0 4 0;
#X connect 166 0 167 0;
#X connect 167 0 8 0;
#X connect 168 0 169 0;
#X connect 169 0 10 0;
#X connect 170 0 171 0;
#X connect 171 0 37 0;
#X connect 172 0 173 0;
#X connect 173 0 39 0;
#X connect 174 0 175 0;
#X connect 175 0 43 0;
#X connect 176 0 177 0;
#X connect 177 0 45 0;
#X connect 178 0 179 0;
#X connect 179 0 81 0;
#X connect 180 0 181 0;
#X connect 181 0 83 0;
#X connect 182 0 183 0;
#X connect 183 0 87 0;
#X connect 184 0 185 0;
#X connect 185 0 89 0;
#X connect 186 0 187 0;
#X connect 187 0 115 0;
#X connect 188 0 189 0;
#X connect 189 0 117 0;
#X connect 190 0 191 0;
#X connect 191 0 121 0;
#X connect 192 0 193 0;
#X connect 193 0 123 0;
#X connect 194 0 264 0;
#X connect 195 0 280 0;
#X connect 195 0 281 0;
#X connect 196 0 265 0;
#X connect 197 0 199 0;
#X connect 198 0 197 0;
#X connect 198 0 263 0;
#X connect 200 0 266 0;
#X connect 201 0 278 0;
#X connect 201 0 279 0;
#X connect 202 0 267 0;
#X connect 203 0 205 0;
#X connect 204 0 203 0;
#X connect 207 0 206 1;
#X connect 208 0 206 3;
#X connect 209 0 206 0;
#X connect 210 0 218 0;
#X connect 210 0 212 0;
#X connect 211 0 213 0;
#X connect 211 0 220 0;
#X connect 212 0 197 1;
#X connect 212 0 207 0;
#X connect 213 0 197 2;
#X connect 213 0 207 1;
#X connect 214 0 203 1;
#X connect 214 0 208 0;
#X connect 215 0 203 2;
#X connect 215 0 208 1;
#X connect 216 0 214 0;
#X connect 216 0 218 1;
#X connect 217 0 215 0;
#X connect 217 0 220 1;
#X connect 218 0 219 0;
#X connect 219 0 226 0;
#X connect 220 0 221 0;
#X connect 221 0 225 0;
#X connect 222 0 224 0;
#X connect 223 0 224 1;
#X connect 224 0 206 2;
#X connect 225 0 223 0;
#X connect 226 0 222 0;
#X connect 227 0 226 2;
#X connect 228 0 268 0;
#X connect 229 0 276 0;
#X connect 229 0 277 0;
#X connect 230 0 269 0;
#X connect 231 0 233 0;
#X connect 232 0 231 0;
#X connect 232 0 262 0;
#X connect 234 0 270 0;
#X connect 235 0 274 0;
#X connect 235 0 275 0;
#X connect 236 0 271 0;
#X connect 237 0 239 0;
#X connect 238 0 237 0;
#X connect 241 0 240 1;
#X connect 242 0 240 3;
#X connect 243 0 240 0;
#X connect 244 0 252 0;
#X connect 244 0 246 0;
#X connect 245 0 247 0;
#X connect 245 0 254 0;
#X connect 246 0 231 1;
#X connect 246 0 241 0;
#X connect 247 0 231 2;
#X connect 247 0 241 1;
#X connect 248 0 237 1;
#X connect 248 0 242 0;
#X connect 249 0 237 2;
#X connect 249 0 242 1;
#X connect 250 0 248 0;
#X connect 250 0 252 1;
#X connect 251 0 249 0;
#X connect 251 0 254 1;
#X connect 252 0 253 0;
#X connect 253 0 260 0;
#X connect 254 0 255 0;
#X connect 255 0 259 0;
#X connect 256 0 258 0;
#X connect 257 0 258 1;
#X connect 258 0 240 2;
#X connect 259 0 257 0;
#X connect 260 0 256 0;
#X connect 261 0 260 2;
#X connect 262 0 246 0;
#X connect 262 0 247 0;
#X connect 262 0 248 0;
#X connect 262 0 249 0;
#X connect 262 0 256 0;
#X connect 262 0 257 0;
#X connect 263 0 212 0;
#X connect 263 0 213 0;
#X connect 263 0 214 0;
#X connect 263 0 215 0;
#X connect 263 0 222 0;
#X connect 263 0 223 0;
#X connect 264 0 210 0;
#X connect 265 0 211 0;
#X connect 266 0 216 0;
#X connect 267 0 217 0;
#X connect 268 0 244 0;
#X connect 269 0 245 0;
#X connect 270 0 250 0;
#X connect 271 0 251 0;
#X connect 272 0 3 0;
#X connect 272 1 9 0;
#X connect 272 2 38 0;
#X connect 272 3 44 0;
#X connect 272 4 82 0;
#X connect 272 5 88 0;
#X connect 272 6 116 0;
#X connect 272 7 122 0;
#X connect 272 8 195 0;
#X connect 272 9 201 0;
#X connect 272 10 229 0;
#X connect 272 11 235 0;
#X connect 273 0 159 1;
#X connect 273 0 272 0;
#X connect 274 0 288 0;
#X connect 275 0 289 0;
#X connect 276 0 287 0;
#X connect 277 0 286 0;
#X connect 278 0 285 0;
#X connect 279 0 284 0;
#X connect 280 0 283 0;
#X connect 281 0 282 0;
#X connect 282 0 194 0;
#X connect 283 0 196 0;
#X connect 284 0 200 0;
#X connect 285 0 202 0;
#X connect 286 0 228 0;
#X connect 287 0 230 0;
#X connect 288 0 234 0;
#X connect 289 0 236 0;
#X connect 290 0 160 0;
#X connect 291 0 226 1;
#X connect 292 0 260 1;
#X connect 293 0 69 1;
#X connect 294 0 147 1;
#X connect 295 0 113 1;
#X connect 296 0 35 1;
#X connect 297 0 14 0;
#X connect 297 0 240 0;
#X connect 297 0 206 0;
#X connect 297 0 49 0;
#X connect 297 0 93 0;
#X connect 297 0 127 0;
#X connect 298 0 301 0;
#X connect 300 0 299 0;
#X connect 301 0 299 0;
#X connect 302 0 299 1;
#X connect 303 0 299 0;
#X connect 304 0 301 2;
#X connect 305 0 307 0;
#X connect 307 0 306 0;
#X connect 308 0 306 1;
#X connect 309 0 306 0;
#X connect 310 0 307 2;
#X connect 311 0 306 0;
#X connect 312 0 314 0;
#X connect 314 0 313 0;
#X connect 315 0 313 1;
#X connect 316 0 313 0;
#X connect 317 0 314 2;
#X connect 318 0 320 0;
#X connect 320 0 319 0;
#X connect 321 0 319 1;
#X connect 322 0 319 0;
#X connect 323 0 320 2;
#X connect 324 0 319 0;
#X connect 325 0 1 0;
#X connect 327 0 313 0;
#X connect 328 0 161 0;
#X connect 328 0 330 0;
#X connect 328 0 297 0;
#X connect 329 0 303 0;
#X connect 329 0 324 0;
#X connect 329 0 322 0;
#X connect 329 0 321 0;
#X connect 329 0 311 0;
#X connect 329 0 309 0;
#X connect 329 0 308 0;
#X connect 329 0 327 0;
#X connect 329 0 316 0;
#X connect 329 0 315 0;
#X connect 329 0 302 0;
#X connect 329 0 300 0;
#X connect 330 0 1 0;
